<svg width="40" height="40" viewBox="0 0 40 40">
  <path d="M31.8480694,7.06291372 C30.4293796,7.06291372 29.2785897,8.17730949 29.2785897,9.55113268 C29.2785897,10.9249559 30.4293796,12.0393516 31.8480694,12.0393516 C33.2667592,12.0393516 34.4175492,10.9249559 34.4175492,9.55113268 C34.4175492,8.17730949 33.2667592,7.06291372 31.8480694,7.06291372 M32.6062766,8.4530531 C31.979492,8.4530531 31.4723357,8.94417041 31.4723357,9.55113268 C31.4723357,10.1564633 31.979492,10.6492123 32.6062766,10.6492123 C33.2330611,10.6492123 33.7402175,10.1564633 33.7402175,9.55113268 C33.7402175,8.94417041 33.2330611,8.4530531 32.6062766,8.4530531 M0,20.1256553 C0,10.5790526 8.02183147,3.10297444 17.5769263,3.10297444 C20.375553,3.10297444 23.0191686,3.73767422 25.3662409,4.86349132 L25.3662409,2 C32.9820103,2.53353941 39.0982145,8.80711442 38.9988051,16.2456654 L31.8446996,16.2456654 C33.5430836,17.4710112 34.9314451,19.0732611 35.8851012,20.9626759 C34.3333039,21.4570564 32.8371085,20.9806237 31.7553997,19.8091213 C27.4622624,15.1541123 18.589554,14.88979 14.4463733,19.9396508 C10.3941774,24.8785614 13.8600264,31.4833551 19.9459023,32.4704846 C23.9239624,33.1166057 27.9913225,31.1390835 27.9913225,27.1905656 C27.9913225,21.0312039 19.1371481,21.7409581 19.1371481,25.1722529 C19.1371481,27.6849461 22.9871554,27.5593114 22.9871554,25.1787793 L22.9871554,24.2047028 C24.5389527,24.2047028 25.7958916,25.4218906 25.7958916,26.9246117 C25.7958916,31.4425646 15.6729839,32.0299475 15.6729839,25.1722529 C15.6729839,17.1871095 31.4588564,16.6633598 31.4588564,27.1905656 C31.4588564,32.9306012 26.230597,36.3292635 20.0368872,36.9101199 C11.037811,37.7569301 0,32.6548575 0,20.1256553" fill="#FF5858"></path>
</svg>
